<svg width="138" height="138" viewBox="0 0 138 138" fill="none" xmlns="http://www.w3.org/2000/svg">
<mask id="mask0_201_35" style="mask-type:alpha" maskUnits="userSpaceOnUse" x="0" y="0" width="138" height="138">
<rect width="138" height="138" fill="#D9D9D9"/>
</mask>
<g mask="url(#mask0_201_35)">
<rect width="138" height="138" fill="#F8CE00"/>
<line x1="-0.525126" y1="-0.474874" x2="139.475" y2="139.525" stroke="black" stroke-width="7"/>
<line x1="-18.5251" y1="20.5251" x2="121.475" y2="160.525" stroke="black" stroke-width="7"/>
<line x1="-39.5251" y1="36.5251" x2="100.475" y2="176.525" stroke="black" stroke-width="7"/>
<line x1="-56.5251" y1="52.5251" x2="83.4749" y2="192.525" stroke="black" stroke-width="7"/>
<line x1="19.4749" y1="-20.4749" x2="159.475" y2="119.525" stroke="black" stroke-width="7"/>
<line x1="37.4749" y1="-40.4749" x2="177.475" y2="99.5251" stroke="black" stroke-width="7"/>
<line x1="54.4749" y1="-59.4749" x2="194.475" y2="80.5251" stroke="black" stroke-width="7"/>
<path d="M-49.4749 73L90.5251 -67" stroke="black" stroke-width="7"/>
<line x1="-37.4749" y1="99.5251" x2="102.525" y2="-40.4749" stroke="black" stroke-width="7"/>
<line x1="-23.4749" y1="122.525" x2="116.525" y2="-17.4749" stroke="black" stroke-width="7"/>
<line x1="-2.47487" y1="139.525" x2="137.525" y2="-0.474871" stroke="black" stroke-width="7"/>
<line x1="20.5251" y1="156.525" x2="160.525" y2="16.5251" stroke="black" stroke-width="7"/>
<line x1="40.5251" y1="173.525" x2="180.525" y2="33.5251" stroke="black" stroke-width="7"/>
<line x1="64.5251" y1="186.525" x2="204.525" y2="46.5251" stroke="black" stroke-width="7"/>
</g>
</svg>
